<?xml version="1.0" ?><svg data-name="Слой 1" id="Слой_1" viewBox="0 0 96 96" xmlns="http://www.w3.org/2000/svg"><defs><style>
      .cls-1 {
        fill: #1f87b8;
      }

      .cls-2 {
        fill: #33b9f1;
      }

      .cls-3 {
        fill: none;
        stroke: #fff;
        stroke-linecap: round;
        stroke-linejoin: round;
        stroke-width: 3px;
      }

      .cls-4 {
        fill: #fff;
      }
    </style></defs><title/><path class="cls-1" d="M92,48v.13A44,44,0,1,1,47.87,4H48c1.06,0,2.11,0,3.16.12a42.89,42.89,0,0,1,5.12.67,43.39,43.39,0,0,1,8.1,2.37A44.13,44.13,0,0,1,88.79,31.47a43.22,43.22,0,0,1,2.43,8.24h0a44,44,0,0,1,.67,5.17C92,45.92,92,47,92,48Z"/><path class="cls-2" d="M91,44.5v.12A39.53,39.53,0,1,1,51.38,5h.12c1,0,1.89,0,2.84.11a38.38,38.38,0,0,1,4.59.6,39.33,39.33,0,0,1,5.45,1.45A44.13,44.13,0,0,1,88.79,31.47a38.33,38.33,0,0,1,1.51,5.59h0a39.22,39.22,0,0,1,.6,4.64C91,42.63,91,43.57,91,44.5Z"/><path class="cls-3" d="M74.66,21.93a36.47,36.47,0,0,1,3,3.52"/><path class="cls-3" d="M58,12a38.11,38.11,0,0,1,11.78,5.76"/><path class="cls-4" d="M65.6,51.67A17.81,17.81,0,0,0,48.17,30.3a18.59,18.59,0,0,0-3,.27A10.35,10.35,0,0,0,39.63,29,10.44,10.44,0,0,0,30.7,44.84a18.18,18.18,0,0,0-.31,3.25A17.71,17.71,0,0,0,51.12,65.61,10.45,10.45,0,0,0,65.6,51.67Zm-7.14,2c-.78,4.18-4.22,6.13-9.15,6.63s-8.52-1.16-10.61-4.09-.69-4.57.72-5.14,2.72.51,3.46,2.15a4.89,4.89,0,0,0,3,2.9c1.29.45,6.76.69,7.12-2.66s-6.34-3.74-10.37-5.17-4.25-4.49-4.25-4.49a6.39,6.39,0,0,1,4.22-7.26c.77-.3,8.89-2.61,12.94,1.44,2.25,2.25,2.09,3.8,1.51,4.73a2.63,2.63,0,0,1-2.85,1.12,2.79,2.79,0,0,1-1.77-1.58c-.45-.93-1.14-2.48-4.39-2.81s-5.12,1.85-4.34,3.5,6.52,2.51,9.15,3.17S59.23,49.48,58.46,53.67Z"/></svg>